<?xml version="1.0" encoding="UTF-8"?>
<svg id="Capa_1" data-name="Capa 1" xmlns="http://www.w3.org/2000/svg" width="1841.51" height="1841.51" viewBox="0 0 1841.51 1841.51">
  <rect width="1841.51" height="1841.51" fill="#8000ff"/>
  <g>
    <path d="M1263.86,837.93h-31.25c-3.82,0-7.48,1.52-10.19,4.23l-312.53,313.36V343.48c0-7.02-5.69-12.71-12.71-12.71h-321.22c-9.25,0-12.71,5.69-12.71,12.71v866.47c0,7.02,5.71,12.69,12.71,12.68h686.73c3.37,0,6.64-1.09,9.33-3.12h0c3.9-2.93,6.2-7.53,6.2-12.42v-354.79c0-7.95-6.44-14.38-14.38-14.38h0Z" fill="#ffb700"/>
    <g>
      <path d="M611.29,1476.98h82.37v31.16h-121.16v-188.27h38.79v157.1h0Z" fill="#fff"/>
      <path d="M791.87,1508.15c-1.72-3.36-2.98-7.54-3.75-12.54-9.05,10.09-20.82,15.13-35.3,15.13-13.7,0-25.06-3.96-34.08-11.89-9.01-7.93-13.51-17.93-13.51-30,0-14.82,5.5-26.2,16.49-34.14,10.99-7.93,26.87-11.94,47.65-12.02h17.2v-8.02c0-6.47-1.66-11.64-4.98-15.52-3.32-3.88-8.56-5.82-15.71-5.82-6.29,0-11.23,1.51-14.81,4.52-3.58,3.02-5.36,7.16-5.36,12.42h-37.37c0-8.1,2.5-15.6,7.5-22.5,5-6.9,12.07-12.3,21.2-16.22,9.14-3.92,19.39-5.88,30.78-5.88,17.24,0,30.93,4.33,41.05,12.99,10.12,8.66,15.19,20.84,15.19,36.53v60.64c.09,13.28,1.94,23.32,5.56,30.13v2.2h-37.76l.02-.02Zm-30.91-25.99c5.51,0,10.61-1.23,15.26-3.68,4.66-2.46,8.1-5.76,10.34-9.89v-24.05h-13.97c-18.71,0-28.67,6.47-29.87,19.39l-.13,2.2c0,4.66,1.64,8.49,4.92,11.51,3.27,3.02,7.76,4.52,13.45,4.52h0Z" fill="#fff"/>
      <path d="M894.86,1333.84v34.39h23.92v27.42h-23.92v69.82c0,5.17,.99,8.88,2.98,11.12,1.99,2.24,5.78,3.36,11.38,3.36,4.14,0,7.8-.3,10.99-.9v28.32c-7.32,2.24-14.87,3.36-22.63,3.36-26.21,0-39.57-13.23-40.09-39.69v-75.39h-20.43v-27.42h20.43v-34.39h37.37Z" fill="#fff"/>
      <path d="M936.69,1332.03c0-5.6,1.87-10.21,5.63-13.84,3.75-3.62,8.86-5.43,15.32-5.43s11.46,1.81,15.26,5.43c3.79,3.62,5.69,8.23,5.69,13.84s-1.92,10.34-5.76,13.97c-3.83,3.62-8.9,5.43-15.19,5.43s-11.36-1.81-15.19-5.43c-3.83-3.62-5.76-8.28-5.76-13.97Zm39.69,176.11h-37.5v-139.91h37.5v139.91Z" fill="#fff"/>
      <path d="M1038.91,1368.24l1.16,16.16c10-12.5,23.4-18.75,40.21-18.75,14.82,0,25.86,4.36,33.1,13.06,7.25,8.71,10.95,21.72,11.12,39.05v90.39h-37.37v-89.48c0-7.93-1.72-13.69-5.17-17.27-3.45-3.58-9.18-5.36-17.2-5.36-10.52,0-18.4,4.48-23.66,13.45v98.66h-37.37v-139.91h35.16Z" fill="#fff"/>
      <path d="M1231.25,1508.15c-1.72-3.36-2.98-7.54-3.75-12.54-9.05,10.09-20.82,15.13-35.3,15.13-13.7,0-25.06-3.96-34.08-11.89-9-7.93-13.51-17.93-13.51-30,0-14.82,5.5-26.2,16.49-34.14,10.99-7.93,26.87-11.94,47.65-12.02h17.2v-8.02c0-6.47-1.66-11.64-4.98-15.52-3.32-3.88-8.56-5.82-15.71-5.82-6.29,0-11.23,1.51-14.81,4.52-3.58,3.02-5.36,7.16-5.36,12.42h-37.37c0-8.1,2.5-15.6,7.5-22.5,5-6.9,12.07-12.3,21.2-16.22s19.39-5.88,30.78-5.88c17.24,0,30.93,4.33,41.05,12.99,10.12,8.66,15.19,20.84,15.19,36.53v60.64c.09,13.28,1.94,23.32,5.56,30.13v2.2h-37.76v-.02Zm-30.9-25.99c5.51,0,10.61-1.23,15.26-3.68,4.66-2.46,8.1-5.76,10.34-9.89v-24.05h-13.97c-18.71,0-28.67,6.47-29.87,19.39l-.13,2.2c0,4.66,1.64,8.49,4.91,11.51,3.27,3.02,7.76,4.52,13.45,4.52h0Z" fill="#fff"/>
    </g>
  </g>
</svg>